<?xml version="1.0"?>
<svg xmlns="http://www.w3.org/2000/svg" xmlns:xlink="http://www.w3.org/1999/xlink" version="1.1" id="Capa_1" x="0px" y="0px" viewBox="0 0 512 512" style="enable-background:new 0 0 512 512;" xml:space="preserve" width="512px" height="512px" class=""><g><g>
	<g>
		<path d="M238.944,16.573L0,208.573v98.944c5.024-1.792,10.368-2.944,16-2.944c26.496,0,48,21.504,48,48c0,26.496-21.504,48-48,48    c-5.632,0-10.976-1.152-16-2.944v81.792c0,9.28,7.872,16.608,17.12,15.968l480-33.344c8.384-0.576,14.88-7.552,14.88-15.968    V176.573C512,176.573,484.256,16.573,238.944,16.573z M240,400.573c-26.496,0-48-21.504-48-48c0-26.496,21.504-48,48-48    c26.496,0,48,21.504,48,48C288,379.069,266.496,400.573,240,400.573z M400,336.573c-26.496,0-48-21.504-48-48    c0-26.496,21.504-48,48-48c26.496,0,48,21.504,48,48C448,315.069,426.496,336.573,400,336.573z M55.392,205.117L250.048,48.701    c187.264,4.032,224.192,109.536,229.568,129.92L55.392,205.117z" data-original="#000000" class="active-path" data-old_color="#000000" fill="#808080"/>
	</g>
</g></g> </svg>
