<?xml version="1.0"?>
<svg xmlns="http://www.w3.org/2000/svg" height="512px" viewBox="0 0 512 512.00104" width="512px" class="hovered-paths"><g><path d="m454.433594 286.820312c63.304687-63.308593 63.304687-165.945312 0-229.253906-63.304688-63.304687-165.945313-63.304687-229.253906 0-63.304688 63.308594-117.960938 220.605469-54.65625 283.910156 63.308593 63.304688 220.601562 8.648438 283.910156-54.65625zm0 0" fill="#c68a65" data-original="#C68A65" class="" data-old_color="#c68a65" style="fill:#FFFFFF"/><path d="m151.65625 315.613281-67.992188 67.988281c-.753906-.890624-1.535156-1.765624-2.375-2.605468-16.308593-16.308594-42.75-16.308594-59.058593 0-16.3125 16.308594-16.3125 42.75 0 59.058594 10.4375 10.441406 25.023437 14.1875 38.453125 11.261718-2.925782 13.425782.820312 28.015625 11.257812 38.453125 16.308594 16.308594 42.753906 16.308594 59.0625 0 16.308594-16.308593 16.308594-42.75 0-59.058593-.839844-.839844-1.714844-1.621094-2.609375-2.375l67.992188-67.992188zm0 0" fill="#ffe6c0" data-original="#FFE6C0" class="" style="fill:#808080" data-old_color="#ffe6c0"/><path d="m461.503906 50.496094c-55.761718-55.757813-141.96875-66.566406-209.644531-26.285156-4.746094 2.824218-6.300781 8.960937-3.476563 13.707031 2.824219 4.742187 8.960938 6.300781 13.707032 3.476562 59.800781-35.597656 135.992187-26.039062 185.273437 23.242188 59.308594 59.308593 59.308594 155.804687 0 215.113281-30.8125 30.816406-84.703125 59.144531-137.289062 72.171875-27.769531 6.882813-54.136719 9.191406-76.257813 6.691406-23.957031-2.714843-42.871094-10.855469-56.222656-24.207031-22.3125-22.3125-30.152344-61.546875-22.074219-110.46875 7.238281-43.855469 26.851563-92.304688 52.457031-129.597656 3.125-4.554688 1.96875-10.777344-2.582031-13.902344s-10.777343-1.96875-13.902343 2.582031c-27.183594 39.589844-48.007813 91.054688-55.703126 137.660157-5.925781 35.878906-4.167968 66.84375 4.976563 91.683593l-57.265625 57.265625c-9.039062-7.042968-20.09375-10.863281-31.738281-10.863281-13.828125 0-26.824219 5.386719-36.601563 15.164063-9.777344 9.773437-15.160156 22.773437-15.160156 36.597656 0 13.824218 5.382812 26.824218 15.160156 36.601562 9.371094 9.367188 21.707032 14.644532 34.585938 15.125.480468 12.878906 5.761718 25.21875 15.128906 34.585938 9.777344 9.777344 22.773438 15.160156 36.601562 15.160156 13.824219 0 26.820313-5.382812 36.597657-15.160156 9.777343-9.777344 15.160156-22.773438 15.160156-36.597656 0-11.644532-3.816406-22.699219-10.863281-31.738282l57.300781-57.300781c15.304687 5.625 32.902344 8.472656 52.40625 8.472656 19.21875 0 40.285156-2.761719 62.804687-8.34375 55.867188-13.839843 113.417969-44.238281 146.621094-77.441406 67.101563-67.105469 67.101563-176.289063 0-243.394531zm-340.175781 370.769531c-1.980469 1.976563-3.035156 4.691406-2.921875 7.484375.117188 2.792969 1.398438 5.410156 3.53125 7.21875.8125.683594 1.445312 1.261719 1.996094 1.8125 6 5.996094 9.304687 13.972656 9.304687 22.457031s-3.304687 16.460938-9.304687 22.460938-13.976563 9.304687-22.460938 9.304687-16.460937-3.304687-22.460937-9.304687c-7.675781-7.675781-10.875-18.613281-8.558594-29.253907.722656-3.328124-.292969-6.792968-2.699219-9.199218s-5.875-3.421875-9.199218-2.699219c-10.644532 2.316406-21.578126-.882813-29.253907-8.558594-6-6-9.304687-13.976562-9.304687-22.460937s3.304687-16.460938 9.304687-22.460938c5.996094-6 13.976563-9.304687 22.457031-9.304687 8.488282 0 16.464844 3.304687 22.464844 9.304687.546875.550782 1.121094 1.183594 1.804688 1.988282 1.804687 2.136718 4.421875 3.421874 7.21875 3.539062 2.789062.113281 5.507812-.941406 7.488281-2.921875l59.230469-59.230469c3.867187 6.269532 8.367187 11.980469 13.488281 17.105469 5.113281 5.113281 10.835937 9.601563 17.125 13.46875zm0 0" data-original="#000000" class="hovered-path active-path" style="fill:#808080" data-old_color="#000000"/><path d="m410.121094 256.644531c1.953125 1.953125 4.511718 2.929688 7.070312 2.929688s5.117188-.976563 7.066406-2.929688c46.570313-46.566406 46.570313-122.335937 0-168.90625-3.902343-3.902343-10.234374-3.902343-14.136718 0-3.90625 3.90625-3.90625 10.238281 0 14.140625 38.769531 38.773438 38.769531 101.855469 0 140.625-3.90625 3.90625-3.90625 10.238282 0 14.140625zm0 0" data-original="#000000" class="hovered-path active-path" style="fill:#808080" data-old_color="#000000"/><path d="m198.714844 209.550781c-2.628906 0-5.207032 1.070313-7.066406 2.929688-1.863282 1.859375-2.929688 4.441406-2.929688 7.070312 0 2.628907 1.066406 5.207031 2.929688 7.066407 1.859374 1.863281 4.4375 2.929687 7.066406 2.929687s5.210937-1.066406 7.070312-2.929687c1.859375-1.859376 2.929688-4.4375 2.929688-7.066407 0-2.628906-1.070313-5.210937-2.929688-7.070312s-4.441406-2.929688-7.070312-2.929688zm0 0" data-original="#000000" class="hovered-path active-path" style="fill:#808080" data-old_color="#000000"/><path d="m230.960938 273.042969c-2.628907 0-5.210938 1.066406-7.070313 2.925781-1.859375 1.863281-2.929687 4.441406-2.929687 7.070312 0 2.628907 1.070312 5.210938 2.929687 7.066407 1.859375 1.863281 4.441406 2.933593 7.070313 2.933593 2.628906 0 5.207031-1.070312 7.066406-2.933593 1.859375-1.855469 2.929687-4.4375 2.929687-7.066407 0-2.628906-1.070312-5.207031-2.929687-7.070312-1.859375-1.859375-4.4375-2.925781-7.066406-2.925781zm0 0" data-original="#000000" class="hovered-path active-path" style="fill:#808080" data-old_color="#000000"/><path d="m223.890625 153.992188c-1.859375 1.859374-2.929687 4.4375-2.929687 7.066406 0 2.632812 1.070312 5.210937 2.929687 7.070312s4.4375 2.929688 7.066406 2.929688c2.632813 0 5.210938-1.070313 7.070313-2.929688s2.929687-4.4375 2.929687-7.070312c0-2.628906-1.070312-5.207032-2.929687-7.066406-1.859375-1.859376-4.4375-2.929688-7.070313-2.929688-2.628906 0-5.207031 1.070312-7.066406 2.929688zm0 0" data-original="#000000" class="hovered-path active-path" style="fill:#808080" data-old_color="#000000"/><path d="m263.203125 209.550781c-2.628906 0-5.207031 1.070313-7.066406 2.929688s-2.929688 4.441406-2.929688 7.070312c0 2.628907 1.070313 5.207031 2.929688 7.066407 1.859375 1.863281 4.4375 2.929687 7.066406 2.929687s5.210937-1.066406 7.070313-2.929687c1.859374-1.859376 2.929687-4.4375 2.929687-7.066407 0-2.628906-1.070313-5.210937-2.929687-7.070312-1.859376-1.859375-4.441407-2.929688-7.070313-2.929688zm0 0" data-original="#000000" class="hovered-path active-path" style="fill:#808080" data-old_color="#000000"/><path d="m281.949219 134.566406c2.632812 0 5.210937-1.070312 7.070312-2.929687s2.929688-4.441407 2.929688-7.070313-1.070313-5.207031-2.929688-7.070312c-1.859375-1.859375-4.4375-2.929688-7.070312-2.929688-2.628907 0-5.207031 1.070313-7.066407 2.929688-1.859374 1.863281-2.929687 4.441406-2.929687 7.070312s1.070313 5.210938 2.929687 7.070313c1.859376 1.859375 4.4375 2.929687 7.066407 2.929687zm0 0" data-original="#000000" class="hovered-path active-path" style="fill:#808080" data-old_color="#000000"/><path d="m225.179688 67.566406c2.628906 0 5.210937-1.070312 7.070312-2.929687s2.929688-4.4375 2.929688-7.070313c0-2.628906-1.070313-5.207031-2.929688-7.066406s-4.441406-2.929688-7.070312-2.929688c-2.628907 0-5.207032 1.070313-7.070313 2.929688-1.859375 1.859375-2.929687 4.4375-2.929687 7.066406 0 2.632813 1.070312 5.210938 2.929687 7.070313 1.863281 1.859375 4.441406 2.929687 7.070313 2.929687zm0 0" data-original="#000000" class="hovered-path active-path" style="fill:#808080" data-old_color="#000000"/></g> </svg>
