<?xml version="1.0"?>
<svg xmlns="http://www.w3.org/2000/svg" id="Capa_1" enable-background="new 0 0 512 512" height="512px" viewBox="0 0 512 512" width="512px" class=""><g><g><g><path d="m504.5 110.214c-137.243-137.243-359.757-137.243-497 0l248.5 394.067z" fill="#fcd0a3" data-original="#FCD0A3" class="active-path" data-old_color="#fcd0a3" style="fill:#FFFFFF"/></g><g><path d="m504.5 110.217-248.5 394.064-248.5-394.064c137.241-137.25 359.759-137.25 497 0z" fill="#fcd0a3" data-original="#FCD0A3" class="active-path" data-old_color="#fcd0a3" style="fill:#FFFFFF"/></g><g><path d="m486.739 93.658-243.911 389.736 13.172 20.887 248.5-394.064c-5.77-5.77-11.699-11.281-17.761-16.559z" fill="#ffb983" data-original="#FFB983" class="" data-old_color="#ffb983" style="fill:#FFFFFF"/></g><g><circle cx="238.827" cy="157.796" fill="#fb636f" r="50.508" data-original="#FB636F" class="" style="fill:#808080" data-old_color="#fb636f"/></g><g><path d="m265.531 114.929c4.837 7.748 7.642 16.897 7.642 26.704 0 27.895-22.613 50.508-50.508 50.508-9.807 0-18.956-2.804-26.704-7.642 8.921 14.29 24.779 23.804 42.867 23.804 27.895 0 50.508-22.613 50.508-50.508-.001-18.087-9.515-33.944-23.805-42.866z" fill="#fa4954" data-original="#FA4954" class="" style="fill:#808080" data-old_color="#fa4954"/></g><g><path d="m394.736 284.278-39.447 62.549c-3.041.576-6.182.879-9.384.879-27.891 0-50.508-22.618-50.508-50.508 0-27.891 22.618-50.508 50.508-50.508 23.425 0 43.123 15.951 48.831 37.588z" fill="#fb636f" data-original="#FB636F" class="" style="fill:#808080" data-old_color="#fb636f"/></g><g><path d="m329.467 344.956c5.153 1.778 10.68 2.75 16.437 2.75 3.202 0 6.344-.303 9.384-.879l39.447-62.549c-2.302-8.728-6.889-16.523-13.072-22.724z" fill="#fa4954" data-original="#FA4954" class="" style="fill:#808080" data-old_color="#fa4954"/></g><g><path d="m273.173 391.143c0 27.891-22.618 50.508-50.508 50.508-2.172 0-4.313-.141-6.415-.404l-41.558-65.913c6.627-20.153 25.608-34.699 47.973-34.699 27.89 0 50.508 22.618 50.508 50.508z" fill="#fb636f" data-original="#FB636F" class="" style="fill:#808080" data-old_color="#fb636f"/></g><g><path d="m249.675 348.475c4.958 7.814 7.84 17.073 7.84 27.01 0 27.891-22.618 50.508-50.508 50.508-.128 0-.254-.011-.382-.012l9.625 15.266c2.101.263 4.243.404 6.415.404 27.891 0 50.508-22.618 50.508-50.508 0-17.953-9.38-33.71-23.498-42.668z" fill="#fa4954" data-original="#FA4954" class="" style="fill:#808080" data-old_color="#fa4954"/></g><g><g><path d="m416.697 115.245c-14.016 8.977-23.316 24.675-23.316 42.551 0 27.476 21.951 49.841 49.276 50.488l30.528-48.411c-17.409-17.409-36.395-32.273-56.488-44.628z" fill="#fb636f" data-original="#FB636F" class="" style="fill:#808080" data-old_color="#fb636f"/></g></g><g><path d="m455.52 143.541-36.445 58.234c6.995 3.959 15.02 6.306 23.583 6.509l30.528-48.411c-5.723-5.722-11.62-11.16-17.666-16.332z" fill="#fa4954" data-original="#FA4954" class="" style="fill:#808080" data-old_color="#fa4954"/></g><g><path d="m136.801 185.07c0 27.8-22.476 50.367-50.245 50.508l-45.73-72.52c8.182-16.87 25.466-28.497 45.467-28.497 27.89.001 50.508 22.619 50.508 50.509z" fill="#fb636f" data-original="#FB636F" class="" style="fill:#808080" data-old_color="#fb636f"/></g><g><path d="m109.366 140.147c7.044 8.682 11.272 19.742 11.272 31.791 0 25.246-18.537 46.172-42.74 49.911l8.657 13.729c27.769-.141 50.245-22.708 50.245-50.508.001-19.574-11.148-36.539-27.434-44.923z" fill="#fa4954" data-original="#FA4954" class="" style="fill:#808080" data-old_color="#fa4954"/></g><g><path d="m7.5 110.214 31.315 49.659c119.948-119.948 314.422-119.948 434.37 0l31.315-49.659c-137.243-137.243-359.757-137.243-497 0z" fill="#f4a86d" data-original="#F4A86D" class="" style="fill:#808080" data-old_color="#f4a86d"/></g><g><path d="m486.74 93.656-6.159 9.841c-5.537 8.847-17.346 11.195-25.892 5.204-130.585-91.552-310.184-82.573-431.148 26.951l15.274 24.221c119.948-119.948 314.422-119.948 434.37 0l31.315-49.659c-5.77-5.77-11.699-11.28-17.76-16.558z" fill="#e89858" data-original="#E89858" class="" style="fill:#808080" data-old_color="#e89858"/></g><g><path d="m143.872 259.966 28.572-14.286 28.571 28.572-28.571 14.286z" fill="#a1e42c" data-original="#A1E42C" class="" style="fill:#808080" data-old_color="#a1e42c"/></g><g><path d="m367.118 139.469-28.572 14.286-28.572-28.571 28.572-14.286z" fill="#a1e42c" data-original="#A1E42C" class="" style="fill:#808080" data-old_color="#a1e42c"/></g><g><path d="m358.026 189.111-10.101 30.305h-40.407l10.102-30.305z" fill="#a1e42c" data-original="#A1E42C" class="" style="fill:#808080" data-old_color="#a1e42c"/></g><g><path d="m296.835 157.796c0-31.986-26.022-58.008-58.008-58.008s-58.008 26.022-58.008 58.008 26.022 58.008 58.008 58.008 58.008-26.022 58.008-58.008zm-58.008 43.008c-23.714 0-43.008-19.294-43.008-43.008s19.294-43.008 43.008-43.008 43.008 19.294 43.008 43.008-19.294 43.008-43.008 43.008z" data-original="#000000" class="" data-old_color="#000000" style="fill:#808080"/><path d="m306.116 424.808c-3.504-2.211-8.135-1.16-10.344 2.343l-39.772 63.07-26.186-41.526c28.623-3.536 50.859-27.988 50.859-57.552 0-31.986-26.022-58.008-58.008-58.008-20.162 0-38.399 10.327-48.868 26.73l-37.831-59.992c-2.209-3.503-6.839-4.553-10.344-2.343-3.504 2.209-4.553 6.841-2.343 10.344l86.63 137.376c.005.008.01.015.014.023l39.733 63.008c1.374 2.178 3.769 3.5 6.344 3.5s4.97-1.321 6.344-3.5l46.116-73.13c2.209-3.502 1.16-8.134-2.344-10.343zm-83.451-76.673c23.714 0 43.008 19.294 43.008 43.008s-19.294 43.008-43.008 43.008c-.682 0-1.373-.033-2.064-.066l-37.59-59.609c6.649-15.887 22.18-26.341 39.654-26.341z" data-original="#000000" class="" data-old_color="#000000" style="fill:#808080"/><path d="m509.803 104.911c-63.076-63.076-146.838-100.253-235.857-104.683-4.127-.203-7.657 2.981-7.863 7.118s2.981 7.657 7.118 7.863c83.307 4.146 161.806 38.219 221.731 96.116l-23.157 36.722c-58.601-55.293-134.859-85.635-215.775-85.635s-157.174 30.342-215.775 85.636l-23.157-36.722c59.925-57.898 138.424-91.971 221.731-96.116 4.137-.206 7.324-3.727 7.118-7.863-.206-4.138-3.751-7.329-7.863-7.118-89.019 4.429-172.782 41.606-235.857 104.682-2.478 2.478-2.91 6.34-1.041 9.304l103.447 164.045c1.426 2.262 3.861 3.501 6.351 3.501 1.367 0 2.751-.374 3.993-1.157 3.504-2.209 4.553-6.841 2.343-10.344l-18.069-28.653c25.764-5.909 45.079-29.05 45.079-56.535 0-30.569-23.772-55.673-53.799-57.839 94.008-62.317 215.692-65.989 312.972-11.036-11.167 10.812-17.592 25.692-17.592 41.6 0 15.246 5.87 29.646 16.528 40.548 7.685 7.861 17.247 13.258 27.688 15.795l-34.02 53.949c-10.184-17.542-29.134-28.898-50.174-28.898-31.986 0-58.008 26.022-58.008 58.008 0 30.424 23.547 55.435 53.372 57.807l-26.706 42.35c-2.21 3.504-1.161 8.135 2.343 10.344 1.242.784 2.626 1.157 3.993 1.157 2.49 0 4.925-1.239 6.351-3.501l183.594-291.141c1.87-2.965 1.438-6.827-1.039-9.304zm-380.502 80.159c0 22.232-17.042 40.639-38.745 42.792l-41.035-65.072c7.77-12.872 21.509-20.728 36.772-20.728 23.714 0 43.008 19.294 43.008 43.008zm271.581-27.274c0-13.159 5.942-25.363 16.078-33.497 16.445 10.476 32.083 22.708 46.644 36.707l-24.894 39.477c-21.204-2.583-37.828-20.923-37.828-42.687zm-54.978 182.411c-23.714 0-43.008-19.294-43.008-43.008s19.294-43.008 43.008-43.008c18.453 0 34.74 11.773 40.658 28.988l-35.78 56.74c-1.619.183-3.249.288-4.878.288z" data-original="#000000" class="" data-old_color="#000000" style="fill:#808080"/><path d="m136.469 258.765c-.386 2.379.396 4.8 2.1 6.504l28.571 28.571c1.44 1.44 3.359 2.197 5.306 2.197 1.138 0 2.286-.259 3.352-.792l28.572-14.286c2.156-1.078 3.663-3.127 4.049-5.507.386-2.379-.396-4.8-2.1-6.504l-28.572-28.571c-2.282-2.282-5.769-2.85-8.657-1.405l-28.571 14.286c-2.157 1.078-3.664 3.127-4.05 5.507zm34.493-3.959 17.391 17.391-14.429 7.215-17.391-17.391z" data-original="#000000" class="" data-old_color="#000000" style="fill:#808080"/><path d="m338.548 161.256c1.139 0 2.287-.259 3.352-.792l28.571-14.286c2.156-1.078 3.663-3.127 4.049-5.507.386-2.379-.396-4.8-2.1-6.504l-28.571-28.571c-2.281-2.282-5.769-2.849-8.657-1.405l-28.572 14.286c-2.156 1.078-3.663 3.127-4.049 5.507-.386 2.379.396 4.8 2.1 6.504l28.572 28.572c1.44 1.439 3.359 2.196 5.305 2.196zm-1.483-41.233 17.391 17.391-14.429 7.215-17.392-17.391z" data-original="#000000" class="" data-old_color="#000000" style="fill:#808080"/><path d="m301.434 223.801c1.41 1.956 3.674 3.115 6.084 3.115h40.406c3.228 0 6.094-2.066 7.115-5.128l10.102-30.305c.762-2.287.379-4.801-1.031-6.757s-3.674-3.115-6.085-3.115h-40.405c-3.228 0-6.094 2.066-7.115 5.128l-10.102 30.305c-.762 2.287-.379 4.802 1.031 6.757zm21.592-27.19h24.595l-5.102 15.305h-24.595z" data-original="#000000" class="" data-old_color="#000000" style="fill:#808080"/><ellipse cx="159.024" cy="127.491" rx="8.081" ry="8.081" transform="matrix(.988 -.152 .152 .988 -17.573 25.726)" data-original="#000000" class="" data-old_color="#000000" style="fill:#808080"/><circle cx="166.095" cy="195.172" r="8.081" data-original="#000000" class="" data-old_color="#000000" style="fill:#808080"/><ellipse cx="218.985" cy="312.711" rx="8.081" ry="8.081" transform="matrix(.647 -.763 .763 .647 -161.142 277.403)" data-original="#000000" class="" data-old_color="#000000" style="fill:#808080"/><ellipse cx="387.321" cy="217.395" rx="8.081" ry="8.081" transform="matrix(.977 -.215 .215 .977 -37.636 88.205)" data-original="#000000" class="" data-old_color="#000000" style="fill:#808080"/><ellipse cx="256" cy="263.863" rx="8.081" ry="8.081" transform="matrix(.424 -.906 .906 .424 -91.484 383.924)" data-original="#000000" class="" data-old_color="#000000" style="fill:#808080"/></g></g></g> </svg>
