<?xml version="1.0"?>
<svg xmlns="http://www.w3.org/2000/svg" xmlns:xlink="http://www.w3.org/1999/xlink" version="1.1" id="Capa_1" x="0px" y="0px" viewBox="0 0 512 512" style="enable-background:new 0 0 512 512;" xml:space="preserve" width="512px" height="512px" class=""><g><path style="fill:#FFFFFF" d="M488.311,73.109l-31.21,29.486l-20.091,66.226c0,0,60.311-55.036,65.624-64.947  S501.533,80.189,488.311,73.109z" data-original="#AB5034" class="active-path" data-old_color="#AB5034"/><path style="fill:#808080" d="M454.751,78.237c-5.312,9.911-17.742,90.584-17.742,90.584l51.302-95.712  C475.089,66.03,460.063,68.326,454.751,78.237z" data-original="#CE9276" class="" data-old_color="#CE9276"/><path style="fill:#FFFFFF" d="M186.265,443c-29.676,0-59.222-4.072-88.261-12.19c-37.231-10.407-58.972-49.009-48.559-86.22  c10.414-37.211,49.038-58.941,86.267-48.532c48.292,13.499,98.953,7.394,142.649-17.189c43.697-24.583,75.201-64.702,88.707-112.968  c10.413-37.21,49.04-58.938,86.267-48.532c37.231,10.407,58.972,49.009,48.559,86.22c-11.908,42.555-31.825,81.537-59.196,115.865  c-26.414,33.126-58.6,60.496-95.665,81.348s-77.174,34.154-119.212,39.538C213.97,442.114,200.102,443,186.265,443z" data-original="#AB5034" class="active-path" data-old_color="#AB5034"/><path style="fill:#808080" d="M453.284,170.106c12.415-33.086-23.504-63.611-54.049-45.815c-5.155,3.003-9.97,6.691-14.305,11.023  c-8.222,8.217-14.506,18.599-17.861,30.588c-13.506,48.265-45.01,88.385-88.707,112.968  c-43.696,24.583-94.357,30.688-142.649,17.189c-25.234-7.055-51.108,0.654-68.405,17.942c-0.14,0.14-0.279,0.28-0.418,0.421  c-21.049,21.399-9.372,57.667,20.146,63.155c2.096,0.39,4.037,0.731,5.758,1.018c17.721,2.957,35.573,4.438,53.472,4.438  c13.837,0,27.705-0.886,41.557-2.66c42.039-5.384,82.147-18.686,119.212-39.538c37.064-20.852,69.25-48.221,95.665-81.348  c21.165-26.544,37.872-55.871,49.867-87.481C452.81,171.365,453.049,170.731,453.284,170.106z" data-original="#CE9276" class="" data-old_color="#CE9276"/><path style="fill:#FFFFFF" d="M27.871,353.154v44.464c4.314,0,18.293-3.99,33.892-8.91c7.88-2.485,12.27-8.804,13.182-15.565  L27.871,353.154z" data-original="#AB5034" class="active-path" data-old_color="#AB5034"/><path style="fill:#808080" d="M61.763,352.238c-15.599-4.92-29.578-8.909-33.892-8.91v29.815h47.074  C76.096,364.611,71.706,355.374,61.763,352.238z" data-original="#CE9276" class="" data-old_color="#CE9276"/><path style="fill:#FFFFFF" d="M27.871,343.328c-11.25,0-20.371,12.153-20.371,27.145c0,14.992,9.121,27.145,20.371,27.145  c8.607-1.785,14.797-13.848,14.797-27.145S36.478,345.113,27.871,343.328z" data-original="#AB5034" class="active-path" data-old_color="#AB5034"/><path d="M489.158,129.784c15.13-15.011,18.733-19.889,20.087-22.416c3.658-6.827,3.65-15.267-0.021-23.156  c-3.386-7.274-9.555-13.584-17.371-17.77c-16.845-9.022-36.453-5.344-43.71,8.198c-1.44,2.686-3.667,8.942-8.249,32.772  c-36.393-2.634-70.021,20.6-80.046,56.427c-12.967,46.344-43.211,84.865-85.162,108.469  c-41.953,23.604-90.591,29.464-136.953,16.504c-39.918-11.166-81.426,11.189-94.386,50.088c-9.786-2.673-13.357-3.089-15.475-3.089  C12.503,335.812,0,351.355,0,370.461s12.502,34.65,27.87,34.65c2.371-0.001,6.946-0.575,20.964-4.639  c9.983,18.346,26.839,31.88,47.152,37.559c29.593,8.274,59.968,12.469,90.281,12.469c14.105,0,28.407-0.915,42.51-2.721  c42.999-5.507,84.025-19.115,121.938-40.445c37.908-21.33,70.83-49.329,97.851-83.221c28.001-35.123,48.375-75.005,60.555-118.537  C516.749,178.312,508.925,149.429,489.158,129.784z M484.773,79.668c4.901,2.624,8.857,6.589,10.853,10.876  c0.976,2.095,2.324,6.145,0.4,9.735c-0.346,0.631-2.816,4.412-18.556,19.967c-6.763-4.511-14.169-7.926-22.111-10.146  c-0.22-0.062-0.451-0.108-0.673-0.168c4.47-23.179,6.328-27.538,6.678-28.204C464.657,75.579,475.377,74.636,484.773,79.668z   M494.675,201.533c-11.636,41.587-31.095,79.682-57.838,113.227c-25.811,32.374-57.261,59.121-93.478,79.499  c-36.221,20.379-75.413,33.38-116.488,38.639c-13.473,1.725-27.134,2.6-40.605,2.6c-28.948,0-57.964-4.008-86.243-11.914  c-15.366-4.296-28.276-14.169-36.466-27.587c0.156-0.049,0.306-0.095,0.462-0.145c6.254-1.973,11.316-5.863,14.639-11.249  c2.175-3.526,1.08-8.147-2.445-10.322c-3.526-2.177-8.147-1.079-10.321,2.446c-1.425,2.31-3.573,3.93-6.384,4.818  c-3.065,0.966-6.061,1.894-8.939,2.764c-18.104,5.481-22.081,5.793-22.7,5.8c-6.976,0-12.869-8.997-12.869-19.648  c0-10.228,5.44-18.908,12.05-19.581c3.974,1.59,8.117,9.58,8.117,19.581c0,4.143,3.358,7.501,7.5,7.501s7.5-3.358,7.5-7.501  c0-5.221-0.779-10.178-2.191-14.627c3.499,1.041,7.369,2.231,11.53,3.543c3.952,1.249,8.163-0.945,9.409-4.897  c1.246-3.951-0.946-8.163-4.896-9.41c-2.171-0.685-4.252-1.332-6.26-1.948c10.651-31.041,43.92-48.817,75.935-39.863  c50.22,14.042,102.903,7.692,148.347-17.877c45.443-25.569,78.205-67.299,92.252-117.5c8.623-30.819,38.901-50.077,70.435-44.797  c2.253,0.377,4.471,0.868,6.591,1.462c8.163,2.282,15.631,6.1,22.195,11.349C493.135,151.588,501.441,177.351,494.675,201.533z" data-original="#000000" class="" style="fill:#808080" data-old_color="#000000"/></g> </svg>
